<svg class="fill-token" xmlns="http://www.w3.org/2000/svg" width="128" height="128" viewBox="0 0 128 128"><path d="M0 64C0 28.6538 28.6538 0 64 0V0C99.3462 0 128 28.6538 128 64V64C128 99.3462 99.3462 128 64 128V128C28.6538 128 0 99.3462 0 64V64Z" fill="url(#paint0_linear_7194_61)"></path><path d="M64.2378 28C42.0154 28 24 42.9137 24 61.3218C24 73.2567 31.576 83.7222 42.9696 89.6089C42.9696 89.6089 43.5607 94.0759 37.3289 99.4916C37.3289 99.4916 41.5594 100.855 51.741 94.0822L61.8799 94.5921C62.6593 94.6206 63.4452 94.6365 64.2378 94.6387C86.4636 94.6387 104.475 79.733 104.475 61.3282C104.475 42.9234 86.4504 28 64.2378 28ZM45.3344 50.5657C45.3352 49.9856 45.4504 49.4108 45.6738 48.8752C45.8972 48.3395 46.2242 47.8532 46.6361 47.4436C47.0479 47.034 47.5364 46.7094 48.0741 46.4882C48.6117 46.267 49.1877 46.1543 49.7693 46.1552C50.3511 46.1539 50.9276 46.2655 51.4657 46.4865C52.0037 46.7076 52.4927 47.0324 52.9049 47.442C53.3171 47.8516 53.6444 48.3393 53.868 48.8752C54.0915 49.411 54.2073 49.9853 54.2082 50.5657C54.2073 51.7394 53.7392 52.8647 52.9069 53.6943C52.0746 54.5238 50.9459 54.9891 49.7693 54.9891C48.5932 54.9882 47.4657 54.5221 46.6341 53.6926C45.8025 52.8631 45.3352 51.7388 45.3344 50.5657V50.5657ZM75.212 72.9995C73.7134 74.3382 71.9434 75.3393 70.0224 75.935C68.1015 76.5308 66.0743 76.7066 64.079 76.4514C62.0791 76.6327 60.0636 76.383 58.1694 75.7179C56.2752 75.0528 54.5467 73.9883 53.1016 72.5974C52.5328 71.9213 52.1042 71.1398 51.8406 70.2972C51.577 69.4547 51.4838 68.567 51.566 67.6882L51.5826 66.7408C51.6189 64.9982 53.0486 64.8764 54.7923 65.1597L55.8461 65.343C57.5932 65.6296 59.0031 66.2269 58.9668 67.9794L58.9471 69.0362C58.9239 69.7938 57.8109 72.1298 64.1649 72.2484C70.5188 72.3669 69.5053 69.9984 69.5185 69.2276L69.5415 68.1869C69.5778 66.4311 71.0145 65.8806 72.7714 65.6599L73.828 65.528C75.585 65.2941 77.002 65.4678 76.9656 67.2137V68.166C77.009 69.0481 76.8773 69.9306 76.5786 70.7621C76.28 71.5936 75.82 72.3584 75.2249 73.0124L75.212 72.9995ZM78.706 54.9891C78.1237 54.9895 77.5469 54.8765 77.0088 54.6545C76.4707 54.4326 75.9819 54.1064 75.57 53.6959C75.1581 53.2853 74.8314 52.7977 74.6085 52.2611C74.3856 51.7245 74.2707 51.1498 74.2707 50.5689C74.2711 49.9887 74.3861 49.4142 74.6093 48.8784C74.8325 48.3426 75.1597 47.8565 75.5716 47.4468C75.9835 47.0371 76.4721 46.7124 77.01 46.4914C77.5478 46.2703 78.1243 46.1571 78.706 46.1584C79.2876 46.1575 79.8635 46.2702 80.4012 46.4914C80.9388 46.7126 81.4273 47.0372 81.8391 47.4468C82.251 47.8564 82.5781 48.3428 82.8014 48.8784C83.0248 49.414 83.1404 49.9888 83.1413 50.5689C83.1408 51.1495 83.0258 51.7249 82.8026 52.2611C82.5795 52.7973 82.2526 53.284 81.8408 53.6943C81.4289 54.1045 80.9398 54.4295 80.402 54.6513C79.8641 54.8731 79.288 54.9863 78.706 54.9859V54.9891Z" fill="white"></path><defs><linearGradient id="paint0_linear_7194_61" x1="64" y1="0" x2="64" y2="123.52" gradientUnits="userSpaceOnUse"><stop stop-color="#20C55A"></stop><stop offset="1" stop-color="#119941"></stop><stop offset="1" stop-color="#1CAB4E"></stop></linearGradient></defs></svg>